<?xml version="1.0" standalone="no"?>
<!DOCTYPE svg PUBLIC "-//W3C//DTD SVG 20010904//EN"
 "http://www.w3.org/TR/2001/REC-SVG-20010904/DTD/svg10.dtd">
<svg version="1.0" xmlns="http://www.w3.org/2000/svg"
 width="700.000000pt" height="700.000000pt" viewBox="0 0 700.000000 700.000000"
 preserveAspectRatio="xMidYMid meet">
<metadata>
Created by potrace 1.11, written by Peter Selinger 2001-2013
</metadata>
<g transform="translate(0.000000,700.000000) scale(0.100000,-0.100000)"
fill="#000000" stroke="none">
<path d="M3415 4536 c-39 -39 -87 -91 -107 -116 -47 -59 -96 -110 -133 -137
-17 -12 -52 -39 -80 -59 -27 -20 -54 -44 -59 -52 -5 -8 -28 -33 -51 -56 -45
-44 -115 -137 -208 -277 -36 -54 -94 -120 -156 -179 -175 -164 -211 -178 -293
-112 -26 20 -71 54 -100 75 -29 20 -91 73 -138 117 -47 44 -96 83 -109 86 -40
11 -74 -8 -101 -58 -38 -72 -269 -288 -413 -385 -67 -46 -126 -83 -132 -83
-23 0 -91 -39 -115 -67 -14 -15 -41 -50 -59 -78 -39 -58 -155 -149 -288 -227
-123 -71 -174 -115 -232 -201 -26 -40 -80 -118 -119 -174 -40 -56 -72 -104
-72 -107 0 -3 15 0 32 5 18 5 77 9 131 9 109 0 132 7 217 70 30 22 84 56 120
74 67 35 133 97 165 153 13 23 33 37 69 50 42 15 57 27 87 74 36 53 111 125
154 146 11 5 40 11 64 12 93 6 174 52 266 153 31 35 71 87 87 115 16 29 52 71
79 94 61 51 72 70 76 137 2 35 10 62 25 82 26 36 16 40 177 -85 58 -45 146
-104 195 -130 93 -51 118 -78 136 -150 6 -22 22 -63 35 -91 14 -28 25 -55 25
-61 0 -5 11 -15 25 -21 14 -6 25 -18 25 -26 0 -8 21 -34 47 -58 25 -23 90 -86
142 -138 61 -60 117 -106 154 -125 32 -16 111 -74 175 -128 64 -55 127 -104
140 -110 12 -5 22 -13 22 -17 0 -4 25 -18 56 -30 40 -17 58 -20 66 -12 8 8 -2
24 -38 59 -91 89 -101 118 -61 182 12 20 31 58 42 86 17 43 28 54 73 76 62 32
86 59 106 119 14 41 19 78 30 235 5 67 13 82 44 90 39 10 52 24 52 56 0 16 5
29 12 29 7 0 28 11 48 25 45 31 58 27 107 -33 21 -26 49 -56 63 -66 67 -52
120 -119 150 -194 98 -238 160 -352 191 -352 17 0 9 36 -16 70 -14 18 -28 49
-31 69 -8 39 -77 214 -98 246 -7 11 -16 34 -20 52 -4 19 -33 57 -72 98 -91 94
-114 132 -121 200 l-6 57 49 -35 c27 -19 95 -59 151 -89 95 -50 180 -114 263
-199 82 -84 135 -152 151 -194 9 -24 26 -59 37 -77 11 -18 32 -76 46 -128 15
-52 33 -102 41 -110 8 -9 26 -43 40 -75 15 -33 39 -72 53 -86 15 -14 33 -34
40 -45 24 -36 2 76 -25 130 -23 45 -65 157 -63 164 1 1 -1 15 -4 30 -14 73
-15 102 -4 102 28 0 208 -156 208 -180 0 -6 25 -24 55 -41 30 -17 65 -45 77
-61 24 -34 133 -90 176 -91 95 -1 96 20 2 62 -44 19 -84 46 -107 72 -20 22
-71 67 -113 99 -50 39 -87 78 -110 116 -47 75 -64 91 -132 115 -59 22 -71 33
-269 243 -105 112 -197 182 -325 249 -80 41 -125 72 -158 108 -53 57 -106 84
-145 74 -31 -8 -71 -43 -71 -62 0 -7 -4 -13 -9 -13 -5 0 -33 -32 -62 -70 -46
-61 -65 -76 -134 -111 -67 -34 -89 -52 -135 -109 -30 -38 -69 -96 -86 -130
-39 -75 -57 -95 -114 -128 -25 -14 -58 -37 -75 -52 -33 -29 -136 -90 -153 -90
-15 0 -70 52 -93 87 -29 43 -24 56 29 73 34 11 47 20 48 35 1 11 15 43 31 70
52 88 65 131 78 245 17 159 34 215 76 256 67 63 91 111 95 184 3 78 17 111 69
160 49 47 80 108 84 166 1 7 17 35 37 64 20 29 41 66 46 84 13 37 36 66 54 66
7 0 38 -25 71 -56 61 -58 214 -172 296 -219 47 -27 130 -122 121 -137 -3 -4
-19 -8 -36 -8 -17 0 -62 -14 -99 -31 -72 -34 -97 -59 -51 -53 56 8 108 6 147
-4 22 -6 67 -13 100 -17 180 -17 216 -47 395 -322 50 -79 97 -143 102 -143 6
0 8 15 6 35 -5 39 2 40 74 4 65 -33 316 -343 350 -432 11 -29 34 -72 52 -97
17 -25 44 -66 59 -92 39 -67 68 -58 33 10 -7 15 -19 54 -26 87 -7 33 -15 65
-17 72 -9 24 47 14 115 -21 37 -19 83 -41 103 -49 19 -8 60 -36 90 -62 30 -25
68 -59 85 -73 25 -22 34 -42 48 -107 9 -44 24 -93 32 -110 14 -30 14 -30 9 20
-2 28 -7 69 -11 93 l-6 43 51 -26 c29 -14 68 -41 88 -60 59 -55 260 -142 281
-121 2 3 -16 18 -42 33 -99 59 -211 149 -294 236 -116 122 -200 207 -237 238
-16 14 -43 42 -60 63 -46 57 -274 248 -362 302 -43 27 -86 58 -95 69 -30 35
-51 122 -44 184 4 31 9 83 13 116 3 33 10 63 16 67 20 12 86 -52 150 -145 34
-50 67 -105 72 -121 8 -24 27 -40 94 -76 67 -36 91 -55 118 -95 54 -81 114
-136 187 -171 66 -32 136 -95 136 -122 0 -7 -11 -29 -23 -50 -35 -55 -23 -67
28 -27 46 35 83 47 125 41 111 -16 167 -52 325 -211 77 -78 152 -149 167 -158
15 -9 35 -36 46 -59 20 -46 47 -75 56 -60 3 5 -1 20 -9 35 -7 14 -11 28 -8 31
3 3 31 -12 62 -33 64 -43 121 -74 121 -66 0 23 -34 54 -128 116 -97 66 -164
127 -232 215 -14 18 -54 56 -90 85 -36 29 -85 72 -109 96 -60 57 -101 75 -182
78 -80 4 -82 5 -114 55 -32 51 -76 91 -160 146 -38 25 -83 64 -100 85 -16 22
-41 53 -54 70 -13 16 -49 43 -80 59 -60 30 -125 94 -172 170 -16 25 -56 69
-91 97 -35 28 -79 67 -97 87 -20 20 -45 36 -57 36 -27 0 -135 -79 -152 -112
-13 -24 -185 -148 -205 -148 -7 0 -26 22 -44 48 -67 99 -190 201 -242 202 -26
0 -118 90 -209 204 -35 43 -64 67 -112 91 -76 38 -227 149 -282 206 -21 22
-55 65 -77 97 -24 35 -47 59 -58 59 -10 0 -50 -32 -88 -71z"/>
<path d="M2004 3143 c-43 -37 -103 -86 -133 -108 -51 -37 -60 -40 -142 -45
-76 -4 -92 -8 -116 -31 -45 -41 -147 -113 -162 -116 -60 -8 -87 -27 -216 -148
-27 -26 -66 -59 -85 -74 -75 -57 -140 -125 -161 -168 -12 -24 -19 -46 -17 -49
3 -2 38 25 79 61 40 36 79 65 86 65 6 0 25 11 41 25 61 51 70 17 17 -64 -19
-29 -35 -55 -35 -58 0 -16 67 48 109 106 65 90 97 119 178 161 37 19 100 54
140 78 71 42 97 50 107 33 9 -14 -87 -129 -208 -246 -62 -60 -115 -118 -119
-127 -17 -46 107 -58 171 -16 53 34 89 48 136 54 62 8 90 19 155 64 78 52 105
82 141 154 37 73 55 94 97 111 35 15 57 50 67 107 6 33 57 98 77 98 4 0 27
-18 52 -41 24 -22 81 -62 127 -87 93 -52 152 -115 209 -222 18 -33 60 -87 94
-122 34 -35 74 -79 90 -98 l27 -35 -4 42 c-7 59 -32 112 -70 153 -19 19 -36
47 -40 62 -6 27 -6 27 21 16 51 -22 191 -124 238 -173 6 -6 18 -17 27 -24 38
-28 1 58 -49 116 -27 31 -58 50 -218 135 -43 24 -104 67 -135 96 -30 30 -82
72 -115 94 -87 59 -222 165 -237 186 -25 34 -94 91 -119 97 -21 5 -39 -5 -105
-62z"/>
<path d="M2246 2834 c5 -42 44 -136 115 -280 27 -55 67 -93 82 -78 3 3 -12 42
-32 87 -21 45 -57 127 -81 182 -61 140 -96 178 -84 89z"/>
</g>
</svg>
